<svg width="25" height="13" viewBox="0 0 25 13" fill="none" xmlns="http://www.w3.org/2000/svg">
<g id="IMAGE" clip-path="url(#clip0_1904_441)">
<path id="Vector" d="M21.4125 7.436C21.3375 7.436 21.275 7.436 21.2125 7.436C14.2 7.436 7.2 7.436 0.1875 7.436C0.05 7.436 0 7.41 0 7.241C0.0125 6.747 0.0125 6.24 0 5.746C0 5.603 0.0375 5.564 0.175 5.564C5.4875 5.564 10.8125 5.564 16.125 5.564C17.825 5.564 19.5375 5.564 21.2375 5.564C21.2875 5.564 21.35 5.564 21.4 5.564C21.425 5.499 21.3625 5.473 21.3375 5.447C20.0875 4.134 18.825 2.834 17.5625 1.534C17.45 1.417 17.4375 1.365 17.55 1.235C17.925 0.857996 18.2875 0.467995 18.6625 0.0909953C18.7375 0.0129953 18.775 -4.67524e-06 18.85 0.0909953C20.875 2.197 22.9 4.303 24.925 6.409C25 6.487 25 6.526 24.925 6.604C22.9 8.697 20.8875 10.803 18.8625 12.909C18.775 13 18.7375 13 18.6625 12.909C18.3 12.519 17.925 12.129 17.55 11.752C17.45 11.648 17.45 11.596 17.55 11.492C18.8125 10.192 20.0625 8.879 21.325 7.579C21.3625 7.527 21.4 7.514 21.4125 7.436Z" fill="#383431"/>
</g>
<defs>
<clipPath id="clip0_1904_441">
<rect width="25" height="13" fill="white"/>
</clipPath>
</defs>
</svg>
